<svg width="120" height="120" viewBox="0 0 120 120" fill="none" xmlns="http://www.w3.org/2000/svg">
  <path d="M60 5C51.1031 5.00469 42.4072 7.64595 35.0106 12.5902C27.614 17.5344 21.8486 24.5597 18.4426 32.7788C15.0366 40.9979 14.1429 50.0421 15.8742 58.7689C17.6055 67.4957 21.8843 75.5136 28.17 81.81C36.32 89.96 55.5 101.75 56.635 114.135C56.805 115.985 58.15 117.5 60 117.5C61.85 117.5 63.2 115.985 63.365 114.135C64.5 101.75 83.665 89.98 91.81 81.835C98.1031 75.5412 102.389 67.5229 104.126 58.7937C105.863 50.0645 104.973 41.0163 101.568 32.7929C98.1636 24.5694 92.3975 17.5399 84.9986 12.593C77.5997 7.64604 68.9003 5.00371 60 5V5Z" fill="#FF4433"/>
  <g clip-path="url(#clip0_12_10)">
    <path d="M59.9993 54.4193C62.8683 54.4193 65.194 52.0936 65.194 49.2247C65.194 46.3558 62.8683 44.03 59.9993 44.03C57.1304 44.03 54.8046 46.3558 54.8046 49.2247C54.8046 52.0936 57.1304 54.4193 59.9993 54.4193Z" fill="white"/>
    <path d="M87.2714 49.0916C87.2714 44.9943 83.4728 41.3969 77.4274 39.0366C78.4047 32.6146 77.1871 27.5239 73.6353 25.4752C70.4633 23.6441 66.0706 24.5402 61.2654 28.0011C60.8403 28.3063 60.4181 28.631 59.996 28.9686C59.5772 28.631 59.1552 28.3063 58.7331 28.0011C53.928 24.5402 49.5352 23.6409 46.3632 25.4752C42.8147 27.5239 41.5972 32.6114 42.5777 39.0269C36.5259 41.3904 32.7273 44.9909 32.7273 49.0916C32.7273 53.1889 36.5259 56.7861 42.5712 59.1464C41.5939 65.5684 42.8114 70.6591 46.3632 72.7077C47.4379 73.328 48.6555 73.6363 49.9801 73.6363C52.5612 73.6363 55.5579 72.4676 58.7331 70.1819C59.1584 69.8767 59.5805 69.5521 60.0025 69.2144C60.4213 69.5521 60.8435 69.8767 61.2654 70.1819C64.4408 72.4708 67.4375 73.6363 70.0185 73.6363C71.3432 73.6363 72.5607 73.328 73.6353 72.7077C76.8073 70.8766 78.2262 66.6235 77.632 60.7308C77.58 60.2114 77.5119 59.6854 77.4274 59.1497C83.476 56.7894 87.2714 53.192 87.2714 49.0916ZM62.785 30.1082C65.4862 28.1635 67.9992 27.1505 70.0185 27.1505C70.8919 27.1505 71.6711 27.3388 72.3367 27.7219C74.6613 29.066 75.6548 32.9198 74.9437 38.1729C72.6061 37.4554 70.0185 36.9067 67.2362 36.5561C65.5705 34.3646 63.8045 32.3874 61.996 30.6991C62.259 30.4978 62.522 30.2965 62.785 30.1082ZM47.6619 27.7219C48.3275 27.3388 49.1067 27.1505 49.9801 27.1505C51.9995 27.1505 54.5125 28.1602 57.2137 30.1082C57.4767 30.2965 57.7397 30.4946 58.0026 30.6991C56.1942 32.3874 54.4313 34.3614 52.7657 36.5529C49.9865 36.9035 47.3957 37.4554 45.0581 38.1697C44.3471 32.9198 45.3373 29.066 47.6619 27.7219ZM35.3246 49.0916C35.3246 46.4065 38.1687 43.6176 43.0744 41.6079C43.6231 43.9877 44.4413 46.5038 45.5224 49.085C44.4348 51.6693 43.6166 54.1888 43.0679 56.5719C38.1687 54.5622 35.3246 51.7765 35.3246 49.0916ZM57.2137 68.0748C53.3436 70.8604 49.8632 71.7306 47.6619 70.4611C45.3373 69.1169 44.3439 65.2632 45.0549 60.0101C47.3925 60.7276 49.9801 61.2762 52.7625 61.6269C54.428 63.8184 56.1942 65.7956 58.0026 67.4839C57.7397 67.6885 57.4767 67.8865 57.2137 68.0748ZM59.9993 65.7924C56.7527 62.8184 53.6325 58.8446 50.9996 54.2861C50.295 53.0687 48.8706 50.0083 48.2927 48.8234C47.8317 49.9272 47.3763 50.9399 47.0191 52.0177C47.3113 52.5599 48.438 55.0394 48.7495 55.5815C49.3664 56.6497 50.0126 57.6887 50.6782 58.6951C48.8113 58.3672 47.084 57.9452 45.5127 57.4485C46.4055 53.4161 48.188 48.7668 50.9996 43.8968C51.6911 42.6988 53.1935 40.0238 53.9468 38.9135C52.7585 39.0661 51.8042 39.0156 50.6874 39.2461C50.3627 39.772 49.0612 42.0592 48.7495 42.6014C48.1262 43.6793 47.5548 44.7572 47.0191 45.8285C46.3697 44.0462 45.873 42.3384 45.5192 40.7281C49.4574 39.4846 54.3761 38.7021 59.9993 38.7021C61.4051 38.7021 64.341 38.6736 65.6528 38.7678C64.9288 37.8165 64.3078 36.9554 63.5513 36.1048C62.9377 36.0853 60.6259 36.1048 59.9993 36.1048C58.759 36.1048 57.5448 36.147 56.3533 36.2185C57.5351 34.8127 58.759 33.527 59.9993 32.3906C63.2428 35.3646 66.366 39.3386 68.9991 43.8968C69.6906 45.0948 71.1849 47.8837 71.7725 49.0916C72.2368 47.9876 72.676 46.9809 73.0364 45.8965C72.7441 45.3511 71.5607 43.1371 71.249 42.5981C70.6321 41.53 69.9861 40.4911 69.3205 39.4878C71.1874 39.8158 72.9146 40.2378 74.4859 40.7345C73.5931 44.7669 71.8107 49.4162 68.9991 54.2861C68.3075 55.4842 66.3394 58.2277 65.5862 59.338C66.7745 59.1854 68.0614 58.9574 69.1783 58.7268C69.5029 58.2008 70.9373 56.1238 71.249 55.5815C71.8691 54.5102 72.4406 53.4388 72.9697 52.3707C73.5996 54.1044 74.0996 55.8089 74.4632 57.4582C70.5283 58.7017 65.616 59.4809 59.9993 59.4809C58.5935 59.4809 55.3249 59.2959 54.0133 59.2018C54.7373 60.153 55.5172 61.1434 56.2736 61.9941C56.8872 62.0135 59.3727 62.0782 59.9993 62.0782C61.2395 62.0782 62.4537 62.036 63.6454 61.9646C62.4603 63.3704 61.2395 64.656 59.9993 65.7924ZM72.3367 70.4611C70.1355 71.7338 66.6517 70.8637 62.785 68.0748C62.522 67.8865 62.259 67.6885 61.996 67.4839C63.8045 65.7956 65.5674 63.8216 67.2329 61.6301C70.0088 61.2795 72.5932 60.7308 74.9275 60.0166C74.973 60.3444 75.0184 60.6724 75.0508 60.9938C75.5282 65.7404 74.538 69.1884 72.3367 70.4611ZM76.9306 56.5751C76.3723 54.1595 75.5444 51.6434 74.4762 49.1013C75.5638 46.5169 76.382 43.9975 76.9306 41.6144C81.8299 43.6241 84.674 46.4065 84.674 49.0916C84.674 51.7765 81.8332 54.5622 76.9306 56.5751Z" fill="white"/>
  </g>
  <defs>
    <clipPath id="clip0_12_10">
      <rect width="54" height="54" fill="red" transform="translate(32.7273 21.8182)"/>
    </clipPath>
  </defs>
</svg>
